<svg version="1.1" id="Layer_1" xmlns="http://www.w3.org/2000/svg" xmlns:xlink="http://www.w3.org/1999/xlink" x="0px" y="0px"
	 width="100%" viewBox="0 0 512 512" enable-background="new 0 0 512 512" xml:space="preserve">
<path fill="#000000" opacity="1.000000" stroke="none" 
	d="
M1.000000,196.000000 
	C1.000000,130.666672 1.000000,65.833336 1.000000,1.000000 
	C171.666672,1.000000 342.333344,1.000000 513.000000,1.000000 
	C513.000000,171.666672 513.000000,342.333344 513.000000,513.000000 
	C342.333344,513.000000 171.666672,513.000000 1.000000,513.000000 
	C1.000000,407.500000 1.000000,302.000000 1.000000,196.000000 
M202.500000,33.000000 
	C186.004822,33.000000 169.501785,33.321880 153.016434,32.919224 
	C132.002792,32.405964 113.085457,52.396603 113.057449,73.263245 
	C112.927528,170.062973 112.952950,266.863037 113.064484,363.662811 
	C113.077240,374.730591 116.601906,385.119202 125.118347,392.336090 
	C138.111145,403.346375 151.828247,413.518341 165.439667,423.778473 
	C187.416412,440.344238 209.657318,456.560242 231.592209,473.180573 
	C245.232117,483.515717 266.821991,484.234436 280.906403,474.376892 
	C297.487610,462.771881 313.334778,450.119843 329.534851,437.967987 
	C346.502136,425.240540 363.412720,412.434174 380.532013,399.913818 
	C394.091431,389.997009 401.133453,377.258362 401.096802,360.111664 
	C400.894501,265.478119 400.972260,170.843887 401.049103,76.209961 
	C401.055725,68.046883 399.454041,60.495522 395.118134,53.541348 
	C387.215729,40.867149 376.444641,33.003235 360.945618,33.001823 
	C308.463745,32.997047 255.981873,33.000000 202.500000,33.000000 
z"/>
<path fill="#FFFFFF" opacity="1.000000" stroke="none" 
	d="
M203.000000,33.000000 
	C255.981873,33.000000 308.463745,32.997047 360.945618,33.001823 
	C376.444641,33.003235 387.215729,40.867149 395.118134,53.541348 
	C399.454041,60.495522 401.055725,68.046883 401.049103,76.209961 
	C400.972260,170.843887 400.894501,265.478119 401.096802,360.111664 
	C401.133453,377.258362 394.091431,389.997009 380.532013,399.913818 
	C363.412720,412.434174 346.502136,425.240540 329.534851,437.967987 
	C313.334778,450.119843 297.487610,462.771881 280.906403,474.376892 
	C266.821991,484.234436 245.232117,483.515717 231.592209,473.180573 
	C209.657318,456.560242 187.416412,440.344238 165.439667,423.778473 
	C151.828247,413.518341 138.111145,403.346375 125.118347,392.336090 
	C116.601906,385.119202 113.077240,374.730591 113.064484,363.662811 
	C112.952950,266.863037 112.927528,170.062973 113.057449,73.263245 
	C113.085457,52.396603 132.002792,32.405964 153.016434,32.919224 
	C169.501785,33.321880 186.004822,33.000000 203.000000,33.000000 
M130.000000,158.500000 
	C130.000000,225.489609 130.156372,292.479919 129.851486,359.468140 
	C129.798523,371.109039 134.682068,379.262421 143.456345,385.820984 
	C160.184021,398.324615 176.959900,410.763733 193.719955,423.223999 
	C210.613113,435.783295 227.461334,448.403961 244.433594,460.855499 
	C250.612015,465.388275 263.311676,465.465942 269.389313,461.016022 
	C285.067078,449.536896 300.620300,437.887482 316.210815,426.289368 
	C334.265717,412.857971 352.328461,399.437012 370.344543,385.953735 
	C377.810333,380.366333 383.946136,373.701263 383.954071,363.707306 
	C384.030670,267.222992 384.050568,170.738480 383.831085,74.254616 
	C383.821442,70.013550 382.002777,65.409645 379.885590,61.610741 
	C374.088623,51.209045 363.717743,49.124271 353.104492,49.088924 
	C296.447632,48.900238 239.789734,48.952396 183.132401,49.044960 
	C173.219543,49.061153 163.304581,49.594845 153.396057,50.017551 
	C140.454788,50.569626 130.051163,61.545975 130.019409,75.013412 
	C129.954590,102.508804 130.000000,130.004456 130.000000,158.500000 
z"/>
<path fill="#000000" opacity="1.000000" stroke="none" 
	d="
M130.000000,158.000000 
	C130.000000,130.004456 129.954590,102.508804 130.019409,75.013412 
	C130.051163,61.545975 140.454788,50.569626 153.396057,50.017551 
	C163.304581,49.594845 173.219543,49.061153 183.132401,49.044960 
	C239.789734,48.952396 296.447632,48.900238 353.104492,49.088924 
	C363.717743,49.124271 374.088623,51.209045 379.885590,61.610741 
	C382.002777,65.409645 383.821442,70.013550 383.831085,74.254616 
	C384.050568,170.738480 384.030670,267.222992 383.954071,363.707306 
	C383.946136,373.701263 377.810333,380.366333 370.344543,385.953735 
	C352.328461,399.437012 334.265717,412.857971 316.210815,426.289368 
	C300.620300,437.887482 285.067078,449.536896 269.389313,461.016022 
	C263.311676,465.465942 250.612015,465.388275 244.433594,460.855499 
	C227.461334,448.403961 210.613113,435.783295 193.719955,423.223999 
	C176.959900,410.763733 160.184021,398.324615 143.456345,385.820984 
	C134.682068,379.262421 129.798523,371.109039 129.851486,359.468140 
	C130.156372,292.479919 130.000000,225.489609 130.000000,158.000000 
M253.881744,346.028870 
	C252.974319,346.351776 252.089828,346.848633 251.156067,346.971741 
	C235.270905,349.066986 223.420929,362.948486 223.075211,378.878265 
	C222.668228,397.630432 237.382324,413.017883 257.504547,413.292511 
	C279.043518,413.586456 296.535339,390.578888 289.250336,369.550873 
	C284.375916,355.481018 271.348572,345.698883 253.881744,346.028870 
z"/>
<path fill="#FFFFFF" opacity="1.000000" stroke="none" 
	d="
M254.328827,346.015442 
	C271.348572,345.698883 284.375916,355.481018 289.250336,369.550873 
	C296.535339,390.578888 279.043518,413.586456 257.504547,413.292511 
	C237.382324,413.017883 222.668228,397.630432 223.075211,378.878265 
	C223.420929,362.948486 235.270905,349.066986 251.156067,346.971741 
	C252.089828,346.848633 252.974319,346.351776 254.328827,346.015442 
M273.998260,378.737946 
	C271.606415,365.256470 258.173462,359.015228 247.999329,366.050507 
	C238.579468,372.564270 236.411621,384.994476 247.040558,392.865692 
	C258.507660,401.357697 272.634125,394.072876 273.998260,378.737946 
z"/>
<path fill="#000000" opacity="1.000000" stroke="none" 
	d="
M273.999084,379.159515 
	C272.634125,394.072876 258.507660,401.357697 247.040558,392.865692 
	C236.411621,384.994476 238.579468,372.564270 247.999329,366.050507 
	C258.173462,359.015228 271.606415,365.256470 273.999084,379.159515 
z"/>
</svg>